<?xml version="1.0" encoding="UTF-8"?>
<svg xmlns="http://www.w3.org/2000/svg" xmlns:xlink="http://www.w3.org/1999/xlink" width="28px" height="25px" viewBox="0 0 28 25" version="1.1">
<g id="surface1">
<path style=" stroke:none;fill-rule:nonzero;fill:rgb(0%,0%,0%);fill-opacity:1;" d="M 3.109375 7.03125 C 3.109375 5.738281 4.15625 4.6875 5.445312 4.6875 C 6.734375 4.6875 7.777344 5.738281 7.777344 7.03125 L 7.777344 12.5 L 3.109375 12.5 Z M 0 7.03125 L 0 17.96875 C 0 20.992188 2.433594 23.4375 5.445312 23.4375 C 8.453125 23.4375 10.890625 20.992188 10.890625 17.96875 L 10.890625 9.257812 C 10.976562 10.191406 11.289062 11.113281 11.851562 11.933594 L 18.097656 21.078125 C 19.824219 23.601562 23.214844 24.21875 25.679688 22.453125 C 28.144531 20.683594 28.742188 17.203125 27.019531 14.679688 L 20.773438 5.53125 C 19.046875 3.003906 15.648438 2.390625 13.1875 4.160156 C 11.828125 5.136719 11.035156 6.640625 10.890625 8.210938 L 10.890625 7.03125 C 10.890625 4.007812 8.453125 1.5625 5.445312 1.5625 C 2.433594 1.5625 0 4.007812 0 7.03125 Z M 14.417969 10.164062 C 13.640625 9.027344 13.933594 7.464844 14.996094 6.699219 C 16.027344 5.960938 17.453125 6.195312 18.203125 7.292969 L 21.460938 12.058594 L 17.578125 14.796875 Z M 23.867188 19.90625 C 23.828125 19.9375 23.789062 19.960938 23.75 19.984375 L 23.945312 19.847656 C 23.921875 19.867188 23.898438 19.886719 23.867188 19.90625 Z M 23.867188 19.90625 "/>
</g>
</svg>
