<?xml version="1.0" encoding="UTF-8"?>
<svg xmlns="http://www.w3.org/2000/svg" xmlns:xlink="http://www.w3.org/1999/xlink" width="28px" height="px" viewBox="0 0 28 25" version="1.1">
<g id="surface1">
<path style=" stroke:none;fill-rule:nonzero;fill:rgb(0%,0%,0%);fill-opacity:1;" d="M 27.992188 12.476562 C 27.992188 13.355469 27.261719 14.042969 26.433594 14.042969 L 24.878906 14.042969 L 24.914062 21.867188 C 24.921875 23.597656 23.527344 25.003906 21.800781 25.003906 L 6.226562 25.003906 C 4.511719 25.003906 3.117188 23.601562 3.117188 21.878906 L 3.117188 14.042969 L 1.554688 14.042969 C 0.679688 14.042969 0 13.359375 0 12.476562 C 0 12.035156 0.144531 11.644531 0.484375 11.304688 L 12.949219 0.390625 C 13.289062 0.046875 13.679688 0 14.019531 0 C 14.359375 0 14.75 0.0976562 15.039062 0.34375 L 20.222656 4.917969 L 20.222656 3.125 C 20.222656 2.261719 20.917969 1.5625 21.777344 1.5625 L 23.332031 1.5625 C 24.195312 1.5625 24.890625 2.261719 24.890625 3.125 L 24.890625 9.03125 L 27.457031 11.296875 C 27.84375 11.640625 28.039062 12.03125 27.992188 12.46875 Z M 13.222656 9.375 C 12.792969 9.375 12.445312 9.726562 12.445312 10.15625 L 12.445312 12.5 L 10.109375 12.5 C 9.683594 12.5 9.332031 12.851562 9.332031 13.28125 L 9.332031 14.84375 C 9.332031 15.273438 9.683594 15.625 10.109375 15.625 L 12.445312 15.625 L 12.445312 17.96875 C 12.445312 18.398438 12.792969 18.75 13.222656 18.75 L 14.777344 18.75 C 15.207031 18.75 15.554688 18.398438 15.554688 17.96875 L 15.554688 15.625 L 17.890625 15.625 C 18.316406 15.625 18.667969 15.273438 18.667969 14.84375 L 18.667969 13.28125 C 18.667969 12.851562 18.316406 12.5 17.890625 12.5 L 15.554688 12.5 L 15.554688 10.15625 C 15.554688 9.726562 15.207031 9.375 14.777344 9.375 Z M 13.222656 9.375 "/>
</g>
</svg>
