<?xml version="1.0" encoding="UTF-8"?>
<svg xmlns="http://www.w3.org/2000/svg" xmlns:xlink="http://www.w3.org/1999/xlink" width="28px" height="px" viewBox="0 0 27 22" version="1.1">
<g id="surface1">
<path style=" stroke:none;fill-rule:nonzero;fill:rgb(0%,0%,0%);fill-opacity:1;" d="M 25.914062 10.613281 C 26.601562 9.539062 27 8.253906 27 6.875 C 27 3.078125 23.980469 0 20.25 0 C 18.894531 0 17.636719 0.402344 16.578125 1.105469 C 16.246094 1.328125 16.222656 1.800781 16.503906 2.089844 L 24.949219 10.691406 C 25.230469 10.976562 25.699219 10.957031 25.914062 10.613281 Z M 23.921875 12.644531 C 24.253906 12.421875 24.277344 11.949219 23.996094 11.660156 L 15.550781 3.058594 C 15.269531 2.773438 14.800781 2.792969 14.585938 3.136719 C 13.898438 4.210938 13.5 5.496094 13.5 6.875 C 13.5 10.671875 16.519531 13.75 20.25 13.75 C 21.605469 13.75 22.863281 13.347656 23.921875 12.644531 Z M 12.71875 15.8125 L 0.78125 15.8125 C 0.378906 15.8125 0.0664062 16.164062 0.148438 16.5625 C 0.796875 19.671875 3.503906 22 6.75 22 C 9.996094 22 12.703125 19.671875 13.351562 16.5625 C 13.4375 16.164062 13.121094 15.8125 12.71875 15.8125 Z M 12.71875 14.4375 C 13.121094 14.4375 13.433594 14.085938 13.351562 13.6875 C 12.703125 10.578125 9.996094 8.25 6.75 8.25 C 3.503906 8.25 0.796875 10.578125 0.148438 13.6875 C 0.0625 14.085938 0.378906 14.4375 0.78125 14.4375 Z M 12.71875 14.4375 "/>
</g>
</svg>
