<?xml version="1.0" encoding="UTF-8"?>
<svg xmlns="http://www.w3.org/2000/svg" xmlns:xlink="http://www.w3.org/1999/xlink" width="28px" height="px" viewBox="0 0 28 25" version="1.1">
<g id="surface1">
<path style=" stroke:none;fill-rule:nonzero;fill:rgb(0%,0%,0%);fill-opacity:1;" d="M 5.445312 4.6875 C 4.15625 4.6875 3.109375 5.738281 3.109375 7.03125 L 3.109375 12.5 L 7.777344 12.5 L 7.777344 7.03125 C 7.777344 5.738281 6.734375 4.6875 5.445312 4.6875 Z M 0 7.03125 C 0 4.007812 2.433594 1.5625 5.445312 1.5625 C 8.453125 1.5625 10.890625 4.007812 10.890625 7.03125 L 10.890625 17.96875 C 10.890625 20.992188 8.453125 23.4375 5.445312 23.4375 C 2.433594 23.4375 0 20.992188 0 17.96875 Z M 26.972656 19.5 C 26.628906 20.101562 25.820312 20.140625 25.332031 19.652344 L 16.210938 10.492188 C 15.726562 10.003906 15.757812 9.1875 16.363281 8.84375 C 17.5 8.1875 18.816406 7.8125 20.222656 7.8125 C 24.519531 7.8125 28 11.308594 28 15.625 C 28 17.035156 27.625 18.359375 26.972656 19.5 Z M 24.082031 22.40625 C 22.945312 23.0625 21.628906 23.4375 20.222656 23.4375 C 15.925781 23.4375 12.445312 19.941406 12.445312 15.625 C 12.445312 14.214844 12.820312 12.890625 13.46875 11.75 C 13.816406 11.148438 14.621094 11.109375 15.113281 11.597656 L 24.234375 20.757812 C 24.71875 21.246094 24.683594 22.0625 24.082031 22.40625 Z M 24.082031 22.40625 "/>
</g>
</svg>
