<?xml version="1.0" encoding="UTF-8"?>
<svg xmlns="http://www.w3.org/2000/svg" xmlns:xlink="http://www.w3.org/1999/xlink" width="28px" height="px" viewBox="0 0 28 37" version="1.1">
<g id="surface1">
<path style=" stroke:none;fill-rule:nonzero;fill:rgb(0%,0%,0%);fill-opacity:1;" d="M 0 2.3125 C 0 1.035156 1.042969 0 2.332031 0 L 25.667969 0 C 26.957031 0 28 1.035156 28 2.3125 L 28 4.625 C 28 5.902344 26.957031 6.9375 25.667969 6.9375 L 2.332031 6.9375 C 1.042969 6.9375 0 5.902344 0 4.625 Z M 2.332031 9.25 L 25.667969 9.25 L 25.667969 32.375 C 25.667969 34.925781 23.574219 37 21 37 L 7 37 C 4.425781 37 2.332031 34.925781 2.332031 32.375 L 2.332031 30.0625 L 10.5 30.0625 C 11.140625 30.0625 11.667969 29.542969 11.667969 28.90625 C 11.667969 28.269531 11.140625 27.75 10.5 27.75 L 2.332031 27.75 L 2.332031 23.125 L 10.5 23.125 C 11.140625 23.125 11.667969 22.605469 11.667969 21.96875 C 11.667969 21.332031 11.140625 20.8125 10.5 20.8125 L 2.332031 20.8125 L 2.332031 16.1875 L 10.5 16.1875 C 11.140625 16.1875 11.667969 15.667969 11.667969 15.03125 C 11.667969 14.394531 11.140625 13.875 10.5 13.875 L 2.332031 13.875 Z M 2.332031 9.25 "/>
</g>
</svg>
