<?xml version="1.0" encoding="UTF-8"?>
<svg xmlns="http://www.w3.org/2000/svg" xmlns:xlink="http://www.w3.org/1999/xlink" width="28px" height="px" viewBox="0 0 28 37" version="1.1">
<g id="surface1">
<path style=" stroke:none;fill-rule:nonzero;fill:rgb(0%,0%,0%);fill-opacity:1;" d="M 0 2.3125 C 0 1.035156 1.042969 0 2.332031 0 L 25.667969 0 C 26.957031 0 28 1.035156 28 2.3125 L 28 4.625 C 28 5.902344 26.957031 6.9375 25.667969 6.9375 L 2.332031 6.9375 C 1.042969 6.9375 0 5.902344 0 4.625 Z M 2.332031 9.25 L 25.667969 9.25 L 25.667969 32.375 C 25.667969 34.925781 23.574219 37 21 37 L 7 37 C 4.425781 37 2.332031 34.925781 2.332031 32.375 Z M 11.667969 17.34375 L 11.667969 20.8125 L 8.167969 20.8125 C 7.523438 20.8125 7 21.332031 7 21.96875 L 7 24.28125 C 7 24.917969 7.523438 25.4375 8.167969 25.4375 L 11.667969 25.4375 L 11.667969 28.90625 C 11.667969 29.542969 12.191406 30.0625 12.832031 30.0625 L 15.167969 30.0625 C 15.808594 30.0625 16.332031 29.542969 16.332031 28.90625 L 16.332031 25.4375 L 19.832031 25.4375 C 20.476562 25.4375 21 24.917969 21 24.28125 L 21 21.96875 C 21 21.332031 20.476562 20.8125 19.832031 20.8125 L 16.332031 20.8125 L 16.332031 17.34375 C 16.332031 16.707031 15.808594 16.1875 15.167969 16.1875 L 12.832031 16.1875 C 12.191406 16.1875 11.667969 16.707031 11.667969 17.34375 Z M 11.667969 17.34375 "/>
</g>
</svg>
